<?xml version="1.0" encoding="UTF-8" standalone="no"?>
<svg
   id="svg23"
   version="1.2"
   viewBox="0 0 873.99945 209.53125"
   height="209.53125pt"
   width="873.99945pt"
   xmlns="http://www.w3.org/2000/svg"
   xmlns:svg="http://www.w3.org/2000/svg"
   xmlns:rdf="http://www.w3.org/1999/02/22-rdf-syntax-ns#"
   xmlns:cc="http://creativecommons.org/ns#"
   xmlns:dc="http://purl.org/dc/elements/1.1/">
  <metadata
     id="metadata29">
    <rdf:RDF>
      <cc:Work
         rdf:about="">
        <dc:format>image/svg+xml</dc:format>
        <dc:type
           rdf:resource="http://purl.org/dc/dcmitype/StillImage" />
      </cc:Work>
    </rdf:RDF>
  </metadata>
  <defs
     id="defs27" />
  <path
     id="path2"
     d="m 167.58924,73.16406 h -24.61718 l -28.7461,28.75 -65.398426,-65.39844 c -1.67188,-1.67188 -3.95313,-2.63672 -6.3086,-2.55078 -2.36328,0.043 -4.60547,1.04297 -6.214842,2.76953 -16.375,17.57812 -16.359376,39.79687 -16.296876,42.38281 0.05078,24.14844 13.9375,44.87891 36.261718,54.1211 18.02734,7.46484 37.45313,5.73437 53.273436,-4.1875 L 96.768934,116.28124 c -11.85156,5.85157 -24.54687,4.72266 -33.84375,0.875 -12.32812,-5.10546 -25.50781,-17.8125 -25.51172,-38.16406 0,-0.082 -0.004,-0.21094 -0.008,-0.29297 -0.004,-0.1289 -0.19922,-9.96093 4.91797,-20.3125 0.60937,-1.23437 2.26562,-1.49218 3.24219,-0.51562 l 55.773426,55.77344 c -0.008,0.008 -0.0195,0.0117 -0.0273,0.0156 l 12.47266,12.47266 c 0.008,-0.008 0.0195,-0.0117 0.0273,-0.0156 l 29.00391,29.00391 h 24.61718 l -40.89843,-40.89844 41.05468,-41.05859"
     style="fill:#2b2828;fill-opacity:1;fill-rule:nonzero;stroke:none" />
  <path
     id="path4"
     d="M 109.58924,121.93749 V 19.99999 H 92.182994 v 84.53125 l 17.406246,17.40625"
     style="fill:#2b2828;fill-opacity:1;fill-rule:nonzero;stroke:none" />
  <path
     id="path6"
     d="m 96.757214,116.26562 c -1.94531,1.00781 -4.48828,1.88281 -4.57422,1.91016 v 36.98046 H 109.58924 V 129.09765 L 96.757214,116.26562"
     style="fill:#2b2828;fill-opacity:1;fill-rule:nonzero;stroke:none" />
  <path
     id="path12"
     d="m 427.69862,113.80468 c 0,5.42578 -1.07813,10.17969 -3.20703,14.14063 -2.10547,3.91797 -4.98047,6.94531 -8.53907,8.99609 -3.57421,2.0625 -7.57421,3.10938 -11.88671,3.10938 -4.21875,0 -8.17188,-1.04688 -11.7461,-3.10938 -3.5625,-2.05078 -6.46094,-5.08203 -8.61719,-9.01172 -2.16796,-3.95312 -3.26562,-8.66015 -3.26562,-13.98437 0,-5.23828 1.09766,-9.89844 3.26562,-13.85157 2.15235,-3.92578 5.05469,-6.95703 8.61719,-9.01171 3.57813,-2.0625 7.53125,-3.10938 11.7461,-3.10938 4.3164,0 8.32031,1.02344 11.90234,3.04688 3.55078,2.00781 6.42187,4.98828 8.52734,8.86328 2.125,3.91015 3.20313,8.59375 3.20313,13.92187 z m 11.8164,-21.22656 c -3.27734,-6.11719 -7.85156,-10.93359 -13.60156,-14.32031 -5.74219,-3.375 -12.21094,-5.08594 -19.23047,-5.08594 -6.83984,0 -12.9414,1.54687 -18.1289,4.60547 -3.16797,1.86719 -5.88282,4.03906 -8.11719,6.49609 v -9.86328 h -16.45313 v 115.12109 h 16.45313 v -45.73828 c 2.28125,2.4961 5.04297,4.70313 8.25391,6.58985 5.1914,3.05859 11.24218,4.60937 17.99218,4.60937 7.02735,0 13.50391,-1.76172 19.25,-5.24219 5.7461,-3.47265 10.32032,-8.41015 13.58985,-14.66796 3.2539,-6.21875 4.90625,-13.37891 4.90625,-21.27735 0,-7.99219 -1.65625,-15.13281 -4.91407,-21.22656"
     style="fill:#2b2828;fill-opacity:1;fill-rule:nonzero;stroke:none" />
  <path
     id="path14"
     d="m 581.94081,88.64062 c -2.83594,-5.18359 -6.76563,-9.12891 -11.67579,-11.73047 -4.85937,-2.57422 -10.44531,-3.875 -16.60937,-3.875 -6.29688,0 -12.10156,1.57422 -17.25391,4.68359 -4.03125,2.4375 -7.21484,5.67188 -9.49609,9.65235 -2.45703,-4.13281 -5.75,-7.41797 -9.82422,-9.80469 -5.14844,-3.00781 -11.13281,-4.53125 -17.78125,-4.53125 -5.33203,0 -10.28516,1.13281 -14.71484,3.375 -2.69532,1.36328 -5.07813,3.09766 -7.12891,5.18359 v -7.18359 h -16.44922 v 79.33984 h 16.44922 v -43.51953 c 0,-7.34375 1.76953,-12.98437 5.26172,-16.76562 3.49609,-3.78906 8.10937,-5.62891 14.10547,-5.62891 5.8125,0 10.27344,1.75 13.6289,5.35938 3.35157,3.59765 5.04688,8.95703 5.04688,15.92968 v 44.625 h 16.31641 v -43.51953 c 0,-7.34375 1.76953,-12.98437 5.25781,-16.76562 3.49609,-3.78906 8.11328,-5.62891 14.10547,-5.62891 5.8164,0 10.27343,1.75 13.63281,5.35938 3.34766,3.59765 5.04687,8.95703 5.04687,15.92968 v 44.625 h 16.31641 v -46.41406 c 0,-7.26953 -1.42578,-13.55859 -4.23437,-18.69531"
     style="fill:#2b2828;fill-opacity:1;fill-rule:nonzero;stroke:none" />
  <path
     id="path16"
     d="m 665.91737,113.94531 c 0,5.32812 -1.07813,10.03906 -3.20703,14 -2.10547,3.91797 -4.98047,6.94531 -8.53907,8.99609 -3.57812,2.0625 -7.57421,3.10938 -11.88671,3.10938 -4.30469,0 -8.27735,-1.04297 -11.8086,-3.10547 -3.51562,-2.05078 -6.37109,-5.07813 -8.47656,-9 -2.12891,-3.95703 -3.20703,-8.71485 -3.20703,-14.14063 0,-5.32812 1.07812,-10.01562 3.19922,-13.92187 2.10937,-3.875 4.95703,-6.85938 8.47265,-8.86719 3.53125,-2.01953 7.51172,-3.04297 11.82032,-3.04297 4.30859,0 8.30468,1.04688 11.88671,3.10547 3.5625,2.05859 6.4375,5.06641 8.54297,8.94141 2.125,3.91015 3.20313,8.59765 3.20313,13.92578 z m 0,-39.53516 v 9.62891 c -2.17188,-2.40235 -4.81641,-4.52344 -7.91406,-6.33594 -5.14844,-3.00781 -11.27344,-4.53125 -18.19532,-4.53125 -7.01953,0 -13.48828,1.71094 -19.23047,5.08594 -5.75,3.38672 -10.32812,8.20312 -13.60156,14.32031 -3.25781,6.08984 -4.91015,13.23047 -4.91015,21.22656 0,7.90235 1.64843,15.0625 4.90234,21.27735 3.26562,6.2539 7.8125,11.1914 13.51562,14.66406 5.69922,3.48047 12.15625,5.24609 19.1875,5.24609 6.83985,0 12.9375,-1.55078 18.12891,-4.60937 3.17188,-1.86719 5.88281,-4.05469 8.11719,-6.54688 v 9.91406 h 16.58984 V 74.41015 h -16.58984"
     style="fill:#2b2828;fill-opacity:1;fill-rule:nonzero;stroke:none" />
  <path
     id="path18"
     d="m 766.07362,81.91796 c -6.04688,-5.89453 -14.00781,-8.88281 -23.66797,-8.88281 -5.41406,0 -10.45313,1.12891 -14.97656,3.36719 -2.76563,1.36719 -5.19922,3.09375 -7.27735,5.16406 v -7.15625 h -16.45312 v 79.33984 h 16.45312 v -43.66015 c 0,-7.33594 1.78516,-12.94531 5.3125,-16.67969 3.54297,-3.75 8.23047,-5.57422 14.32813,-5.57422 6.0039,0 10.57812,1.75391 13.98437,5.36719 3.38672,3.59766 5.10547,8.95312 5.10547,15.92187 v 44.625 h 16.31641 v -46.41406 c 0,-10.95703 -3.07031,-19.50781 -9.125,-25.41797"
     style="fill:#2b2828;fill-opacity:1;fill-rule:nonzero;stroke:none" />
  <path
     id="path20"
     d="m 849.74159,118.85937 c -2.6211,-3.06641 -5.80469,-5.39844 -9.47266,-6.9375 -3.46094,-1.44531 -7.98828,-2.93359 -13.44531,-4.41406 -4.21485,-1.16407 -7.55078,-2.23047 -9.91406,-3.16797 -2.17188,-0.85938 -3.98438,-2.00781 -5.39063,-3.41406 -1.23437,-1.23047 -1.83203,-2.78125 -1.83203,-4.73438 0,-2.47656 1.03906,-4.42969 3.17969,-5.98047 2.30468,-1.66797 5.52734,-2.51562 9.58203,-2.51562 4.36719,0 7.85937,1.05468 10.375,3.1289 2.48047,2.04688 3.80078,4.70313 4.03906,8.11719 l 0.12891,1.82813 h 16.42187 l -0.10547,-2.0625 c -0.39453,-7.87891 -3.41406,-14.19141 -8.97265,-18.76172 -5.47657,-4.4961 -12.69922,-6.77344 -21.47657,-6.77344 -5.66406,0 -10.79296,1.00391 -15.25,2.99219 -4.52343,2.01562 -8.08203,4.80468 -10.5664,8.28906 -2.52735,3.53516 -3.8086,7.48437 -3.8086,11.73828 0,5.32031 1.42969,9.70703 4.25,13.03516 2.70704,3.19922 6.00782,5.64843 9.8086,7.28125 3.60547,1.54297 8.30469,3.08203 13.98437,4.57031 5.95703,1.51172 10.38672,3.04687 13.16407,4.56641 2.30468,1.26171 3.3789,3.05468 3.3789,5.63671 0,2.58985 -1.09375,4.69141 -3.35547,6.42188 -2.38672,1.83203 -5.78125,2.76172 -10.08984,2.76172 -4.67969,0 -8.47266,-1.07031 -11.27344,-3.1836 -2.73047,-2.05859 -4.21094,-4.62109 -4.52344,-7.83984 l -0.17187,-1.77734 h -16.80469 l 0.125,2.08203 c 0.29688,4.96484 1.91016,9.42187 4.79297,13.24609 2.85938,3.79297 6.78125,6.78125 11.66797,8.87891 4.80859,2.07031 10.30469,3.12109 16.32422,3.12109 5.66406,0 10.77344,-1.00781 15.1875,-2.99609 4.48437,-2.01563 8.01953,-4.85938 10.51172,-8.44922 2.51562,-3.625 3.78906,-7.75 3.78906,-12.30469 -0.10156,-5.03125 -1.53125,-9.19531 -4.25781,-12.38281"
     style="fill:#2b2828;fill-opacity:1;fill-rule:nonzero;stroke:none" />
  <g
     id="g1200"
     style="display:inline">
    <path
       d="m 274.32976,89.706907 c -4.28303,6.012931 -6.06154,9.640768 -7.48129,16.833573 h 29.3022 V 94.694786 l 33.35487,20.262204 -33.35487,19.01524 v -11.84569 h -29.3022 c 1.4673,7.11724 2.64558,10.66265 7.48129,16.52183 4.34537,5.46236 7.13837,7.87281 12.46917,11.53394 5.35246,2.92298 8.40595,4.15991 14.02788,4.98735 8.81597,0.43116 13.56556,0.1675 21.19743,-2.49394 7.13468,-3.18875 10.68643,-5.17545 15.58607,-10.91046 4.93716,-4.96463 5.92311,-7.79303 8.72879,-14.3391 1.52067,-4.69727 2.00625,-7.45909 1.86993,-12.46917 0.15323,-4.95036 -0.55744,-7.81047 -1.79807,-12.80258 l -0.0719,-0.29007 c -2.4057,-6.470511 -4.52449,-9.709991 -8.72879,-15.27433 -4.98207,-4.968858 -8.36051,-7.314852 -15.58607,-10.598716 -7.61497,-2.405173 -12.21977,-2.966837 -21.19743,-2.182197 -7.35501,1.725679 -10.30599,2.832101 -14.02788,4.987351 -5.39685,3.051906 -8.10636,5.488253 -12.46917,10.910459 z"
       fill="#0096de"
       id="path895"
       style="stroke-width:0.528377" />
    <path
       d="m 252.79702,98.431997 c -3.06617,-6.715672 -5.31864,-10.06981 -10.83754,-14.896007 l -14.65084,25.3769 10.25844,5.92258 -34.2251,18.75474 0.20966,-38.393465 10.25855,5.922575 14.65137,-25.376363 c -6.89691,-2.287873 -10.55698,-3.040282 -18.04894,-1.781688 -6.90346,1.031921 -10.38716,2.245603 -16.22319,5.031735 -5.20773,3.173961 -7.8055,5.199231 -11.33326,9.654506 -4.78129,7.419472 -6.92755,11.66445 -8.43903,19.60438 -0.80582,7.77348 -0.86099,11.84251 1.65557,18.95341 1.83109,6.75742 3.78767,9.02574 8.05416,14.72851 3.30732,3.66588 5.45612,5.46765 9.86332,7.85433 4.21053,2.60807 7.0431,3.4223 11.9867,4.84416 l 0.28697,0.0824 c 6.80607,1.15186 10.67115,0.93734 17.59236,0.0782 6.79388,-1.8303 10.51524,-3.58293 16.972,-8.19883 5.88982,-5.39209 8.6786,-9.09918 12.4882,-17.26631 2.18325,-7.23242 2.70053,-10.34139 2.69472,-14.64238 0.0555,-6.19945 -0.69957,-9.76441 -3.21412,-16.253413 z"
       fill="#30b808"
       id="path897"
       style="stroke-width:0.528377" />
  </g>
</svg>
