<?xml version="1.0" encoding="UTF-8" standalone="no"?>
<!-- Created with Inkscape (http://www.inkscape.org/) -->

<svg
   version="1.1"
   id="svg2"
   xml:space="preserve"
   width="614.40002"
   height="460.79999"
   viewBox="0 0 614.40002 460.79999"
   sodipodi:docname="fig_en_curve_sl_annotated_zoom_recolored.svg"
   inkscape:version="1.1.2 (0a00cf5339, 2022-02-04)"
   xmlns:inkscape="http://www.inkscape.org/namespaces/inkscape"
   xmlns:sodipodi="http://sodipodi.sourceforge.net/DTD/sodipodi-0.dtd"
   xmlns="http://www.w3.org/2000/svg"
   xmlns:svg="http://www.w3.org/2000/svg"><defs
     id="defs6"><clipPath
       clipPathUnits="userSpaceOnUse"
       id="clipPath32"><path
         d="M -1021,-463 H 1794 V 1233 H -1021 Z"
         id="path30" /></clipPath><clipPath
       clipPathUnits="userSpaceOnUse"
       id="clipPath72"><path
         d="M 78.336,51.84 H 382.464 V 328.32 H 78.336 Z"
         id="path70" /></clipPath><clipPath
       clipPathUnits="userSpaceOnUse"
       id="clipPath84"><path
         d="m -9.5,-9.5 h 19 v 19 h -19 z"
         id="path82" /></clipPath><clipPath
       clipPathUnits="userSpaceOnUse"
       id="clipPath96"><path
         d="m -9.5,-9.5 h 19 v 19 h -19 z"
         id="path94" /></clipPath><clipPath
       clipPathUnits="userSpaceOnUse"
       id="clipPath106"><path
         d="M 78.336,51.84 H 382.464 V 328.32 H 78.336 Z"
         id="path104" /></clipPath><clipPath
       clipPathUnits="userSpaceOnUse"
       id="clipPath116"><path
         d="M 78.336,51.84 H 382.464 V 328.32 H 78.336 Z"
         id="path114" /></clipPath><clipPath
       clipPathUnits="userSpaceOnUse"
       id="clipPath172"><path
         d="M -1016,-351 H 1660 V 1068 H -1016 Z"
         id="path170" /></clipPath><clipPath
       clipPathUnits="userSpaceOnUse"
       id="clipPath184"><path
         d="M -1021,-463 H 1794 V 1233 H -1021 Z"
         id="path182" /></clipPath><clipPath
       clipPathUnits="userSpaceOnUse"
       id="clipPath224"><path
         d="M -1021,-463 H 1794 V 1233 H -1021 Z"
         id="path222" /></clipPath></defs><sodipodi:namedview
     id="namedview4"
     pagecolor="#ffffff"
     bordercolor="#666666"
     borderopacity="1.0"
     inkscape:pageshadow="2"
     inkscape:pageopacity="0.0"
     inkscape:pagecheckerboard="0"
     showgrid="false"
     inkscape:zoom="2.1636285"
     inkscape:cx="299.49688"
     inkscape:cy="230.63109"
     inkscape:window-width="2560"
     inkscape:window-height="1410"
     inkscape:window-x="2560"
     inkscape:window-y="0"
     inkscape:window-maximized="1"
     inkscape:current-layer="g8" /><g
     id="g8"
     inkscape:groupmode="layer"
     inkscape:label="fig_en_curve_sl_annotated_zoom"
     transform="matrix(1.3333333,0,0,-1.3333333,0,460.8)"><path
       d="M 0,0 H 460.8 V 345.6 H 0 Z"
       style="fill:#ffffff;fill-opacity:1;fill-rule:nonzero;stroke:none"
       id="path10" /><path
       d="M 78.336,51.84 H 382.464 V 328.32 H 78.336 Z"
       style="fill:#ffffff;fill-opacity:1;fill-rule:nonzero;stroke:none"
       id="path12" /><g
       id="g14"
       transform="translate(107.024,26.418125)"><text
         transform="matrix(1,0,0,-1,0,0.609375)"
         style="font-style:italic;font-variant:normal;font-size:16.5px;font-family:'DejaVu Sans';-inkscape-font-specification:DejaVuSans-Oblique;writing-mode:lr-tb;fill:#262626;fill-opacity:1;fill-rule:nonzero;stroke:none"
         id="text18"><tspan
           x="0"
           y="0"
           id="tspan16">N</tspan></text><text
         transform="matrix(1,0,0,-1,32.597168,0.609375)"
         style="font-variant:normal;font-weight:normal;font-size:16.5px;font-family:'DejaVu Sans';-inkscape-font-specification:DejaVuSans;writing-mode:lr-tb;fill:#262626;fill-opacity:1;fill-rule:nonzero;stroke:none"
         id="text22"><tspan
           x="0"
           y="0"
           id="tspan20">1</tspan></text><g
         id="g24"
         transform="matrix(0.0165,0,0,0.0165,15.557373,0.609375)"><g
           id="g26"><g
             id="g28"
             clip-path="url(#clipPath32)"><path
               d="M 106,355 H 732 V 272 H 106 Z"
               style="fill:#262626;fill-opacity:1;fill-rule:nonzero;stroke:none"
               id="path34" /></g></g></g></g><g
       id="g36"
       transform="translate(325.276,26.418125)"><text
         transform="matrix(1,0,0,-1,0,0.609375)"
         style="font-style:italic;font-variant:normal;font-size:16.5px;font-family:'DejaVu Sans';-inkscape-font-specification:DejaVuSans-Oblique;writing-mode:lr-tb;fill:#262626;fill-opacity:1;fill-rule:nonzero;stroke:none"
         id="text40"><tspan
           x="0"
           y="0"
           id="tspan38">N</tspan></text></g><g
       id="g42"
       transform="translate(115.9625,5.215)"><text
         transform="scale(1,-1)"
         style="font-variant:normal;font-weight:normal;font-size:18px;font-family:'DejaVu Sans';-inkscape-font-specification:DejaVuSans;writing-mode:lr-tb;fill:#262626;fill-opacity:1;fill-rule:nonzero;stroke:none"
         id="text46"><tspan
           x="0 7.0560002 18.072001 25.128 36.161999 41.166 46.889999 58.301998 69.713997 87.246002 98.676003 109.746 117.144 122.868 133.884 140.22 145.944 157.01401 162.01801 173.088 182.98801 190.04401 197.05138 208.06737 219.47937"
           y="0"
           sodipodi:role="line"
           id="tspan44">total number of electrons</tspan></text></g><g
       id="g48"
       transform="rotate(90,-49.997,120.583)"><text
         transform="matrix(1,0,0,-1,0,0.34375)"
         style="font-style:italic;font-variant:normal;font-size:18px;font-family:'DejaVu Sans';-inkscape-font-specification:DejaVuSans-Oblique;writing-mode:lr-tb;fill:#262626;fill-opacity:1;fill-rule:nonzero;stroke:none"
         id="text52"><tspan
           x="0"
           y="0"
           id="tspan50">E</tspan></text><text
         transform="matrix(1,0,0,-1,11.373047,0.34375)"
         style="font-variant:normal;font-weight:normal;font-size:18px;font-family:'DejaVu Sans';-inkscape-font-specification:DejaVuSans;writing-mode:lr-tb;fill:#262626;fill-opacity:1;fill-rule:nonzero;stroke:none"
         id="text56"><tspan
           x="0"
           y="0"
           id="tspan54">(</tspan></text><text
         transform="matrix(1,0,0,-1,18.395508,0.34375)"
         style="font-style:italic;font-variant:normal;font-size:18px;font-family:'DejaVu Sans';-inkscape-font-specification:DejaVuSans-Oblique;writing-mode:lr-tb;fill:#262626;fill-opacity:1;fill-rule:nonzero;stroke:none"
         id="text60"><tspan
           x="0"
           y="0"
           id="tspan58">N</tspan></text><text
         transform="matrix(1,0,0,-1,31.860352,0.34375)"
         style="font-variant:normal;font-weight:normal;font-size:18px;font-family:'DejaVu Sans';-inkscape-font-specification:DejaVuSans;writing-mode:lr-tb;fill:#262626;fill-opacity:1;fill-rule:nonzero;stroke:none"
         id="text64"><tspan
           x="0"
           y="0"
           id="tspan62">)</tspan></text></g><g
       id="g66"><g
         id="g68"
         clip-path="url(#clipPath72)"><path
           d="M 106.88152,346.6 129.024,293.76 331.776,120.96 461.8,98.796818"
           style="fill:none;stroke:#f0f500;stroke-width:2.25;stroke-linecap:butt;stroke-linejoin:round;stroke-miterlimit:10;stroke-dasharray:8.325, 3.6;stroke-dashoffset:0;stroke-opacity:1"
           id="path74" /><g
           id="g76"
           transform="translate(129.024,293.76)"><g
             id="g78"><g
               id="g80"
               clip-path="url(#clipPath84)"><path
                 d="m 0,-4.5 c 1.193414,0 2.338109,0.474148 3.181981,1.318019 C 4.025852,-2.338109 4.5,-1.193414 4.5,0 4.5,1.193414 4.025852,2.338109 3.181981,3.181981 2.338109,4.025852 1.193414,4.5 0,4.5 -1.193414,4.5 -2.338109,4.025852 -3.181981,3.181981 -4.025852,2.338109 -4.5,1.193414 -4.5,0 c 0,-1.193414 0.474148,-2.338109 1.318019,-3.181981 C -2.338109,-4.025852 -1.193414,-4.5 0,-4.5 Z"
                 style="fill:#f0f500;fill-opacity:1;fill-rule:nonzero;stroke:#f0f500;stroke-width:1;stroke-linecap:butt;stroke-linejoin:round;stroke-miterlimit:10;stroke-dasharray:none;stroke-opacity:1"
                 id="path86" /></g></g><g
             id="g88"
             transform="translate(202.752,-172.8)"><g
               id="g90"><g
                 id="g92"
                 clip-path="url(#clipPath96)"><path
                   d="m 0,-4.5 c 1.193414,0 2.338109,0.474148 3.181981,1.318019 C 4.025852,-2.338109 4.5,-1.193414 4.5,0 4.5,1.193414 4.025852,2.338109 3.181981,3.181981 2.338109,4.025852 1.193414,4.5 0,4.5 -1.193414,4.5 -2.338109,4.025852 -3.181981,3.181981 -4.025852,2.338109 -4.5,1.193414 -4.5,0 c 0,-1.193414 0.474148,-2.338109 1.318019,-3.181981 C -2.338109,-4.025852 -1.193414,-4.5 0,-4.5 Z"
                   style="fill:#f0f500;fill-opacity:1;fill-rule:nonzero;stroke:#f0f500;stroke-width:1;stroke-linecap:butt;stroke-linejoin:round;stroke-miterlimit:10;stroke-dasharray:none;stroke-opacity:1"
                   id="path98" /></g></g></g></g></g></g><g
       id="g100"><g
         id="g102"
         clip-path="url(#clipPath106)"><path
           d="m 101.83815,346.6 8.93817,-17.78579 10.1376,-19.68192 8.11008,-15.37229 8.11008,-10.89331 8.11008,-10.56154 8.11008,-10.22976 8.11008,-9.89798 8.11008,-9.56621 8.11008,-9.23443 8.11008,-8.90266 8.11008,-8.57088 8.11008,-8.2391 8.11008,-7.90733 8.11008,-7.57555 8.11008,-7.24378 8.11008,-6.912 8.11008,-6.58022 8.11008,-6.24845 8.11008,-5.91667 8.11008,-5.5849 8.11008,-5.25312 8.11008,-4.92134 8.11008,-4.58957 8.11008,-4.25779 6.08256,-2.97562 6.08256,-2.78899 6.08256,-2.60237 6.08256,-2.41574 6.08256,-2.22912 2.02752,-0.70157 8.11008,-5.36371 8.11008,-5.03194 8.11008,-4.70016 8.11008,-4.36838 8.11008,-4.03661 6.08256,-2.809728 6.08256,-2.623104 6.08256,-2.43648 6.08256,-2.249856 6.08256,-2.063232 6.08256,-1.876608 6.08256,-1.689984 6.08256,-1.50336 6.08256,-1.316736 6.08256,-1.130112 6.08256,-0.943488 6.08256,-0.756864 6.08256,-0.57024 6.08256,-0.383616 4.31776,-0.157886 v 0"
           style="fill:none;stroke:#dc005a;stroke-width:2.25;stroke-linecap:round;stroke-linejoin:round;stroke-miterlimit:10;stroke-dasharray:none;stroke-opacity:0.95686275"
           id="path108" /></g></g><g
       id="g110"><g
         id="g112"
         clip-path="url(#clipPath116)"><path
           d="M 331.776,120.96 129.024,190.08"
           style="fill:none;stroke:#dc005a;stroke-width:2.25;stroke-linecap:butt;stroke-linejoin:round;stroke-miterlimit:10;stroke-dasharray:8.325, 3.6;stroke-dashoffset:0;stroke-opacity:0.59025097"
           id="path118" /></g></g><g
       id="g120"><path
         d="M 78.336,51.84 V 328.32"
         style="fill:none;stroke:#262626;stroke-width:1.875;stroke-linecap:square;stroke-linejoin:miter;stroke-miterlimit:10;stroke-dasharray:none;stroke-opacity:1"
         id="path122" /><path
         d="M 78.336,51.84 H 382.464"
         style="fill:none;stroke:#262626;stroke-width:1.875;stroke-linecap:square;stroke-linejoin:miter;stroke-miterlimit:10;stroke-dasharray:none;stroke-opacity:1"
         id="path124" /><path
         d="m 129.024,186.39904 c 0,-20.58628 0,-41.17255 0,-61.75883"
         style="fill:none;stroke:#dc005a;stroke-width:1.5;stroke-linecap:round;stroke-linejoin:round;stroke-miterlimit:10;stroke-dasharray:none;stroke-opacity:0.95686275"
         id="path126" /><path
         d="m 125.424,179.19904 3.6,7.2 3.6,-7.2"
         style="fill:none;stroke:#dc005a;stroke-width:1.5;stroke-linecap:round;stroke-linejoin:round;stroke-miterlimit:10;stroke-dasharray:none;stroke-opacity:0.95686275"
         id="path128" /><path
         d="m 132.624,131.84021 -3.6,-7.2 -3.6,7.2"
         style="fill:none;stroke:#dc005a;stroke-width:1.5;stroke-linecap:round;stroke-linejoin:round;stroke-miterlimit:10;stroke-dasharray:none;stroke-opacity:0.95686275"
         id="path130" /><g
         id="g132"
         transform="translate(139.1616,152.02)"><text
           transform="matrix(1,0,0,-1,6.4863281,-1.734375)"
           style="font-variant:normal;font-weight:normal;font-size:8.4px;font-family:'DejaVu Sans';-inkscape-font-specification:DejaVuSans;writing-mode:lr-tb;fill:#dc005a;fill-opacity:1;fill-rule:nonzero;stroke:none"
           id="text136"><tspan
             x="0 6.3164062"
             y="0"
             sodipodi:role="line"
             id="tspan134">HO</tspan></text><text
           transform="matrix(1,0,0,-1,22.080469,0.234375)"
           style="font-variant:normal;font-weight:normal;font-size:12px;font-family:'DejaVu Sans';-inkscape-font-specification:DejaVuSans;writing-mode:lr-tb;fill:#dc005a;fill-opacity:1;fill-rule:nonzero;stroke:none"
           id="text140"><tspan
             x="0"
             y="0"
             id="tspan138"
             style="fill:#dc005a;fill-opacity:1">=</tspan></text><text
           transform="matrix(1,0,0,-1,34.473047,5.6125)"
           style="font-style:italic;font-variant:normal;font-size:8.4px;font-family:'DejaVu Sans';-inkscape-font-specification:DejaVuSans-Oblique;writing-mode:lr-tb;fill:#dc005a;fill-opacity:1;fill-rule:nonzero;stroke:none"
           id="text146"><tspan
             x="0 5.3320312"
             y="0"
             sodipodi:role="line"
             id="tspan142">dE</tspan><tspan
             x="0 5.3320312"
             y="10.257812"
             sodipodi:role="line"
             id="tspan144">dN</tspan></text><text
           transform="matrix(1,0,0,-1,47.588672,0.234375)"
           style="font-variant:normal;font-weight:normal;font-size:12px;font-family:'DejaVu Sans';-inkscape-font-specification:DejaVuSans;writing-mode:lr-tb;fill:#dc005a;fill-opacity:1;fill-rule:nonzero;stroke:none"
           id="text150"><tspan
             x="0"
             y="0"
             id="tspan148"
             style="fill:#dc005a;fill-opacity:1">|</tspan></text><text
           transform="matrix(1,0,0,-1,51.746484,-1.734375)"
           style="font-style:italic;font-variant:normal;font-size:8.4px;font-family:'DejaVu Sans';-inkscape-font-specification:DejaVuSans-Oblique;writing-mode:lr-tb;fill:#dc005a;fill-opacity:1;fill-rule:nonzero;stroke:none"
           id="text154"><tspan
             x="0"
             y="0"
             id="tspan152"
             style="fill:#dc005a;fill-opacity:1">N</tspan></text><text
           transform="matrix(1,0,0,-1,59.666602,-1.734375)"
           style="font-variant:normal;font-weight:normal;font-size:8.4px;font-family:'DejaVu Sans';-inkscape-font-specification:DejaVuSans;writing-mode:lr-tb;fill:#dc005a;fill-opacity:1;fill-rule:nonzero;stroke:none"
           id="text158"><tspan
             x="0"
             y="0"
             id="tspan156"
             style="fill:#dc005a;fill-opacity:1">=</tspan></text><text
           transform="matrix(1,0,0,-1,68.341406,-1.734375)"
           style="font-style:italic;font-variant:normal;font-size:8.4px;font-family:'DejaVu Sans';-inkscape-font-specification:DejaVuSans-Oblique;writing-mode:lr-tb;fill:#dc005a;fill-opacity:1;fill-rule:nonzero;stroke:none"
           id="text162"><tspan
             x="0"
             y="0"
             id="tspan160"
             style="fill:#dc005a;fill-opacity:1">N</tspan></text><g
           id="g164"
           transform="matrix(0.012,0,0,0.012,0,0.234375)"><g
             id="g166"><g
               id="g168"
               clip-path="url(#clipPath172)"><path
                 d="m 197,295 c -35,8 -60,22 -75,43 -12,15 -18,33 -18,53 0,55 26,99 80,131 41,26 94,39 158,39 24,0 50,-2 77,-6 27,-4 56,-10 86,-18 l -15,-81 c -30,9 -58,16 -83,20 -26,4 -50,6 -73,6 -39,0 -71,-8 -96,-22 -31,-18 -46,-40 -46,-66 0,-18 8,-32 24,-44 18,-14 47,-21 85,-21 h 75 l -14,-75 h -72 c -45,0 -81,-9 -107,-25 -36,-22 -54,-51 -54,-86 0,-22 9,-41 29,-55 24,-18 60,-27 110,-27 30,0 59,3 88,9 29,6 56,15 82,27 L 422,13 C 390,4 361,-2 333,-6 305,-10 277,-13 251,-13 173,-13 117,1 81,30 53,52 39,83 39,122 c 0,52 18,94 55,126 26,23 61,39 103,47 z"
                 style="fill:#dc005a;fill-opacity:1;fill-rule:nonzero;stroke:none"
                 id="path174" /></g></g></g><g
           id="g176"
           transform="matrix(0.00588,0,0,0.00588,76.360098,1.48125)"><g
             id="g178"><g
               id="g180"
               clip-path="url(#clipPath184)"><path
                 d="M 106,355 H 732 V 272 H 106 Z"
                 style="fill:#dc005a;fill-opacity:1;fill-rule:nonzero;stroke:none"
                 id="path186" /></g></g></g><g
           id="g188"><path
             d="m 34.473047,2.4921875 h 11.615625 v 0.75 H 34.473047 Z"
             style="fill:#dc005a;fill-opacity:1;fill-rule:nonzero;stroke:none"
             id="path190" /></g></g><path
         d="m 129.024,193.7599 c 0,32.10722 0,64.21444 0,96.32165"
         style="fill:none;stroke:#dc005a;stroke-width:1.5;stroke-linecap:round;stroke-linejoin:round;stroke-miterlimit:10;stroke-dasharray:none;stroke-opacity:0.95686275"
         id="path192" /><path
         d="m 132.624,200.9599 -3.6,-7.2 -3.6,7.2"
         style="fill:none;stroke:#dc005a;stroke-width:1.5;stroke-linecap:round;stroke-linejoin:round;stroke-miterlimit:10;stroke-dasharray:none;stroke-opacity:0.95686275"
         id="path194" /><path
         d="m 125.424,282.88155 3.6,7.2 3.6,-7.2"
         style="fill:none;stroke:#dc005a;stroke-width:1.5;stroke-linecap:round;stroke-linejoin:round;stroke-miterlimit:10;stroke-dasharray:none;stroke-opacity:0.95686275"
         id="path196" /><g
         id="g198"
         transform="translate(139.1616,236.95906)"><text
           transform="scale(1,-1)"
           style="font-variant:normal;font-weight:normal;font-size:18px;font-family:'DejaVu Sans';-inkscape-font-specification:DejaVuSans;writing-mode:lr-tb;fill:#dc005a;fill-opacity:1;fill-rule:nonzero;stroke:none"
           id="text202"><tspan
             x="0 11.07 18.1555 25.162874 36.178875"
             y="0"
             sodipodi:role="line"
             id="tspan200">error</tspan></text></g><path
         d="m 118.8864,290.08168 c 0,-55.14856 0,-110.29713 0,-165.44569"
         style="fill:none;stroke:#dc005a;stroke-width:1.5;stroke-linecap:round;stroke-linejoin:round;stroke-miterlimit:10;stroke-dasharray:none;stroke-opacity:0.95686275"
         id="path204" /><path
         d="m 115.2864,282.88168 3.6,7.2 3.6,-7.2"
         style="fill:none;stroke:#dc005a;stroke-width:1.5;stroke-linecap:round;stroke-linejoin:round;stroke-miterlimit:10;stroke-dasharray:none;stroke-opacity:0.95686275"
         id="path206" /><path
         d="m 122.4864,131.83599 -3.6,-7.2 -3.6,7.2"
         style="fill:none;stroke:#dc005a;stroke-width:1.5;stroke-linecap:round;stroke-linejoin:round;stroke-miterlimit:10;stroke-dasharray:none;stroke-opacity:0.95686275"
         id="path208" /><g
         id="g210"
         transform="translate(84.7488,202.39906)"><text
           transform="matrix(1,0,0,-1,12.313477,0.875)"
           style="font-style:italic;font-variant:normal;font-size:18px;font-family:'DejaVu Sans';-inkscape-font-specification:DejaVuSans-Oblique;writing-mode:lr-tb;fill:#dc005a;fill-opacity:1;fill-rule:nonzero;stroke:none"
           id="text214"><tspan
             x="0"
             y="0"
             id="tspan212"
             style="fill:#dc005a;fill-opacity:1">E</tspan></text><g
           id="g216"
           transform="matrix(0.018,0,0,0.018,0,0.875)"><g
             id="g218"><g
               id="g220"
               clip-path="url(#clipPath224)"><path
                 d="M 342,632 142,82 H 542 Z M 8,0 286,729 H 398 L 676,0 Z"
                 style="fill:#dc005a;fill-opacity:1;fill-rule:nonzero;stroke:none"
                 id="path226" /></g></g></g></g><path
         d="M 234.31712,265.71375 H 370.914 c 2.2,0 3.3,1.1 3.3,3.3 V 316.77 c 0,2.2 -1.1,3.3 -3.3,3.3 H 234.31712 c -2.2,0 -3.3,-1.1 -3.3,-3.3 v -47.75625 c 0,-2.2 1.1,-3.3 3.3,-3.3 z"
         style="fill:#ffffff;fill-opacity:0.8;fill-rule:nonzero;stroke:#cccccc;stroke-width:1.5;stroke-linecap:butt;stroke-linejoin:miter;stroke-miterlimit:10;stroke-dasharray:none;stroke-opacity:0.8"
         id="path228" /><path
         d="m 237.61712,306.32312 h 16.5 16.5"
         style="fill:none;stroke:#f0f500;stroke-width:2.25;stroke-linecap:butt;stroke-linejoin:round;stroke-miterlimit:10;stroke-dasharray:8.325, 3.6;stroke-dashoffset:0;stroke-opacity:1"
         id="path230" /><path
         d="m 254.11712,301.82312 c 1.19342,0 2.33811,0.47415 3.18199,1.31802 0.84387,0.84388 1.31801,1.98857 1.31801,3.18198 0,1.19342 -0.47414,2.33811 -1.31801,3.18199 -0.84388,0.84387 -1.98857,1.31801 -3.18199,1.31801 -1.19341,0 -2.3381,-0.47414 -3.18198,-1.31801 -0.84387,-0.84388 -1.31802,-1.98857 -1.31802,-3.18199 0,-1.19341 0.47415,-2.3381 1.31802,-3.18198 0.84388,-0.84387 1.98857,-1.31802 3.18198,-1.31802 z"
         style="fill:#f0f500;fill-opacity:1;fill-rule:nonzero;stroke:#f0f500;stroke-width:1;stroke-linecap:butt;stroke-linejoin:round;stroke-miterlimit:10;stroke-dasharray:none;stroke-opacity:1"
         id="path232" /><g
         id="g234"
         transform="translate(283.81712,300.54812)"><text
           transform="scale(1,-1)"
           style="font-variant:normal;font-weight:normal;font-size:16.5px;font-family:'DejaVu Sans';-inkscape-font-specification:DejaVuSans;writing-mode:lr-tb;fill:#262626;fill-opacity:1;fill-rule:nonzero;stroke:none"
           id="text238"><tspan
             x="0 9.86625 19.634251 29.748751 38.82375"
             y="0"
             sodipodi:role="line"
             id="tspan236">exact</tspan></text></g><path
         d="m 237.61712,281.62 h 16.5 16.5"
         style="fill:none;stroke:#dc005a;stroke-width:2.25;stroke-linecap:round;stroke-linejoin:round;stroke-miterlimit:10;stroke-dasharray:none;stroke-opacity:0.95686275"
         id="path240" /><g
         id="g242"
         transform="translate(283.81712,275.845)"><text
           transform="scale(1,-1)"
           style="font-variant:normal;font-weight:normal;font-size:16.5px;font-family:'DejaVu Sans';-inkscape-font-specification:DejaVuSans;writing-mode:lr-tb;fill:#262626;fill-opacity:1;fill-rule:nonzero;stroke:none"
           id="text246"><tspan
             x="0 8.5965004 18.743999 34.814999 39.402 45.358501 49.945499 60.043499 69.1185 79.233002"
             y="0"
             sodipodi:role="line"
             id="tspan244">semi-local</tspan></text></g></g></g></svg>
